<svg width="30" height="30" viewBox="0 0 30 30" fill="none" xmlns="http://www.w3.org/2000/svg">
<circle cx="15" cy="15" r="15" fill="#0990E2"/>
<mask id="mask0_1521_905" style="mask-type:luminance" maskUnits="userSpaceOnUse" x="0" y="0" width="30" height="30">
<circle cx="15" cy="15" r="15" fill="white"/>
</mask>
<g mask="url(#mask0_1521_905)">
<path d="M20.2851 19.8379L13.0931 31.3458L8.02597 24.1677L14.2338 15.9515L20.2851 19.8379Z" fill="#79CE99"/>
<mask id="mask1_1521_905" style="mask-type:luminance" maskUnits="userSpaceOnUse" x="8" y="15" width="13" height="17">
<path fill-rule="evenodd" clip-rule="evenodd" d="M20.2851 19.8379L13.0931 31.3458L8.02597 24.1677L14.2338 15.9515L20.2851 19.8379Z" fill="white"/>
</mask>
<g mask="url(#mask1_1521_905)">
<path d="M15.0502 16.7388C19.0949 19.1995 15.462 23.7958 16.8289 26.0406C18.1958 28.2855 20.2306 19.288 20.2306 19.288L16.6264 17.7841" fill="#69C28B"/>
</g>
<path d="M17.2063 15.9518C28.9508 15.2351 26.8008 4.59337 22.8856 6.68896C20.9899 7.79565 18.9482 8.63086 16.8204 9.17018L17.2063 15.9518Z" fill="#242926"/>
<path d="M16.1149 19.5C25.9657 28.2732 25.2271 11.5286 22.4411 9.58592C19.5737 7.58643 12.7953 15.5648 12.7953 15.5648" fill="#7DD99F"/>
<path d="M11.553 19.4994C11.553 19.4994 17.1513 14.4631 17.2615 13.1949C17.2615 13.1949 23.1616 12.6987 22.8856 6.68867C13.6224 2.60871 7.38882 3.86208 6.23093 13.4561C6.71354 13.6428 7.25086 13.6282 7.72262 13.4155C7.28154 16.7789 10.9467 16.9079 11.553 19.4994Z" fill="#242926"/>
<path d="M17.2591 14.2732C12.7954 10.3515 9.84019 15.3299 14.5778 17.7845L17.2591 14.2732Z" fill="#7DD99F"/>
<path d="M10.4954 20.1441C14.3325 20.6237 14.3639 27.5495 14.3639 27.5495L7.62157 41.2552C7.62157 41.2552 1.82725 57.2023 -0.825499 57.5339C-14.2209 56.0884 -23.1098 41.4057 -23.1098 41.4057C-23.1098 41.4057 -1.22077 19.5914 10.4954 20.1441Z" fill="#FCDD55"/>
<mask id="mask2_1521_905" style="mask-type:luminance" maskUnits="userSpaceOnUse" x="-24" y="20" width="39" height="38">
<path fill-rule="evenodd" clip-rule="evenodd" d="M10.4954 20.1441C14.3325 20.6237 14.3639 27.5495 14.3639 27.5495L7.62157 41.2552C7.62157 41.2552 1.82725 57.2023 -0.825499 57.5339C-14.2209 56.0884 -23.1098 41.4057 -23.1098 41.4057C-23.1098 41.4057 -1.22077 19.5914 10.4954 20.1441Z" fill="white"/>
</mask>
<g mask="url(#mask2_1521_905)">
</g>
<path d="M3.29373 29.9671L7.1805 48.2277C7.31356 48.966 7.5945 49.6698 8.00644 50.2968L18.1177 65.6878C21.2596 65.2275 23.0167 58.5587 23.0167 58.5587L18.0738 45.7237L14.0514 24.7964" fill="#FCDD55"/>
<path d="M22.3114 15.1712C22.0436 15.2633 21.7506 15.1292 21.6452 14.8663L21.2335 14.0241C21.1641 13.9089 21.144 13.7707 21.1776 13.6404C21.2111 13.5102 21.2956 13.399 21.412 13.3317C21.6798 13.2395 21.9729 13.3736 22.0782 13.6365L22.49 14.4787C22.5593 14.5939 22.5795 14.7322 22.5459 14.8624C22.5124 14.9926 22.4279 15.1039 22.3114 15.1712Z" fill="#082658"/>
<path d="M20.9933 11.3097C19.1925 12.0487 19.1484 12.9388 20.3052 12.548C21.462 12.1572 22.1699 10.8269 20.9933 11.3097Z" fill="#013344"/>
<path d="M23.0445 12.9276C25.6759 14.1057 25.3404 15.4716 23.8419 15.9374L23.0445 12.9276Z" fill="#7DD99F"/>
<ellipse opacity="0.27" cx="18.9764" cy="16.0863" rx="1.64757" ry="0.784988" fill="#505AA8"/>
<path d="M21.0318 16.613C21.4907 16.9042 22.0394 17.0196 22.5768 16.9381" stroke="#013344" stroke-width="0.5206" stroke-linecap="round" stroke-linejoin="round"/>
</g>
</svg>
