<svg width="86" height="16" viewBox="0 0 86 16" fill="none" xmlns="http://www.w3.org/2000/svg">
<path d="M5 8C5 6.61929 6.11929 5.5 7.5 5.5H22.5C23.8807 5.5 25 6.61929 25 8C25 9.38071 23.8807 10.5 22.5 10.5H7.5C6.11929 10.5 5 9.38071 5 8Z" fill="#E7DCFF"/>
<rect x="28" y="5.5" width="30" height="5" rx="2.5" fill="#0075FF"/>
<path d="M61 8C61 6.61929 62.1193 5.5 63.5 5.5H78.5C79.8807 5.5 81 6.61929 81 8C81 9.38071 79.8807 10.5 78.5 10.5H63.5C62.1193 10.5 61 9.38071 61 8Z" fill="#E7DCFF"/>
</svg>
