<svg width="86" height="16" viewBox="0 0 86 16" fill="none" xmlns="http://www.w3.org/2000/svg">
<path d="M5 8C5 6.61929 6.11929 5.5 7.5 5.5H22.5C23.8807 5.5 25 6.61929 25 8C25 9.38071 23.8807 10.5 22.5 10.5H7.5C6.11929 10.5 5 9.38071 5 8Z" fill="#E7DCFF"/>
<path d="M28 8C28 6.61929 29.1193 5.5 30.5 5.5H45.5C46.8807 5.5 48 6.61929 48 8C48 9.38071 46.8807 10.5 45.5 10.5H30.5C29.1193 10.5 28 9.38071 28 8Z" fill="#E7DCFF"/>
<rect x="51" y="5.5" width="30" height="5" rx="2.5" fill="#0075FF"/>
</svg>
