<svg width="86" height="16" viewBox="0 0 86 16" fill="none" xmlns="http://www.w3.org/2000/svg">
<rect x="5" y="5.5" width="30" height="5" rx="2.5" fill="#0075FF"/>
<path d="M38 8C38 6.61929 39.1193 5.5 40.5 5.5H55.5C56.8807 5.5 58 6.61929 58 8C58 9.38071 56.8807 10.5 55.5 10.5H40.5C39.1193 10.5 38 9.38071 38 8Z" fill="#E7DCFF"/>
<path d="M61 8C61 6.61929 62.1193 5.5 63.5 5.5H78.5C79.8807 5.5 81 6.61929 81 8C81 9.38071 79.8807 10.5 78.5 10.5H63.5C62.1193 10.5 61 9.38071 61 8Z" fill="#E7DCFF"/>
</svg>
