<svg width="14" height="14" viewBox="0 0 14 14" fill="none" xmlns="http://www.w3.org/2000/svg">
<g id="Danger">
<path id="Subtract" fill-rule="evenodd" clip-rule="evenodd" d="M7.56367 1.00973C7.19157 0.935314 6.80843 0.935314 6.43633 1.00973C5.60951 1.1751 4.89702 1.69518 4.48753 2.43226L0.621333 9.39142C0.398294 9.79289 0.28125 10.2446 0.28125 10.7038C0.28125 12.1964 1.49117 13.4063 2.98369 13.4063H11.0163C12.5088 13.4063 13.7188 12.1964 13.7188 10.7038C13.7188 10.2446 13.6017 9.79289 13.3787 9.39142L9.51247 2.43226C9.10298 1.69518 8.39048 1.1751 7.56367 1.00973ZM7 8.09379C6.74112 8.09379 6.53125 7.88392 6.53125 7.62504V5.12504C6.53125 4.86615 6.74112 4.65629 7 4.65629C7.25888 4.65629 7.46875 4.86615 7.46875 5.12504V7.62504C7.46875 7.88392 7.25888 8.09379 7 8.09379ZM7.46875 9.81253C7.46875 10.0714 7.25888 10.2813 7 10.2813C6.74112 10.2813 6.53125 10.0714 6.53125 9.81253V9.50003C6.53125 9.24115 6.74112 9.03128 7 9.03128C7.25888 9.03128 7.46875 9.24115 7.46875 9.50003V9.81253Z" fill="url(#paint0_linear_30_57)"/>
</g>
<defs>
<linearGradient id="paint0_linear_30_57" x1="7" y1="0.953918" x2="7" y2="13.4063" gradientUnits="userSpaceOnUse">
<stop stop-color="#FECF50"/>
<stop offset="0.415" stop-color="#E29C0B"/>
<stop offset="0.87" stop-color="#E8AC30"/>
</linearGradient>
</defs>
</svg>
