<svg width="226" height="265" viewBox="0 0 226 265" fill="none" xmlns="http://www.w3.org/2000/svg">
<path opacity="0.5" d="M140.336 67.5021C87.5291 46.5565 33.8004 75.9836 16.8009 110.278C-25.6065 195.831 13.1133 251.513 123.373 264.051C233.632 276.589 226.625 161.167 225.519 136.829C224.413 112.491 206.344 93.6841 140.336 67.5021Z" fill="#CCDAFC"/>
<path d="M43.8076 102.771C39.2356 102.923 35.6077 106.673 35.6077 111.248V207.751C35.6077 212.545 39.5788 216.387 44.3707 216.227L188.187 211.451C192.759 211.299 196.387 207.548 196.387 202.974V106.471C196.387 101.676 192.416 97.8349 187.624 97.9941L43.8076 102.771Z" fill="url(#paint0_linear_32_280)" stroke="url(#paint1_linear_32_280)" stroke-width="2.21256"/>
<rect x="198.912" y="166.022" width="151.192" height="93.6651" rx="12.1691" transform="rotate(172.038 198.912 166.022)" fill="#2ECC71" stroke="url(#paint2_linear_32_280)" stroke-width="2.21256"/>
<g opacity="0.5">
<rect x="149.268" y="93.2826" width="24.1022" height="16.963" rx="3.31884" transform="rotate(-7.96248 149.268 93.2826)" fill="#82FDB6" stroke="#1AAF59" stroke-width="0.73752"/>
<line x1="159.453" y1="97.8452" x2="150.455" y2="99.1039" stroke="#1AAF59" stroke-width="0.73752"/>
<line x1="160.083" y1="102.345" x2="151.084" y2="103.603" stroke="#1AAF59" stroke-width="0.73752"/>
<line x1="173.594" y1="95.8674" x2="164.595" y2="97.1261" stroke="#1AAF59" stroke-width="0.73752"/>
<line x1="174.223" y1="100.367" x2="165.225" y2="101.625" stroke="#1AAF59" stroke-width="0.73752"/>
<rect x="158.726" y="94.6703" width="5.10364" height="10.9448" rx="1.10628" transform="rotate(-7.96248 158.726 94.6703)" stroke="#1AAF59" stroke-width="0.73752"/>
</g>
<ellipse cx="107.664" cy="98.8013" rx="20.3281" ry="11.4496" transform="rotate(91.4169 107.664 98.8013)" fill="url(#paint3_radial_32_280)"/>
<path d="M133.066 99.2662C135.506 104.614 136.905 109.862 136.887 114.288C136.869 118.711 135.441 122.264 132.282 124.335C132.195 124.392 131.965 124.51 131.631 124.668C131.307 124.822 130.91 125.002 130.51 125.182C130.071 125.379 129.622 125.576 129.268 125.732C128.983 125.858 128.758 125.957 128.648 126.007C124.902 127.716 120.448 127.04 116.25 124.481C112.054 121.923 108.15 117.503 105.556 111.817C102.962 106.132 102.182 100.286 103.001 95.4408C103.82 90.5927 106.228 86.7861 109.974 85.0768C110.087 85.0254 110.364 84.8946 110.729 84.7219C111.173 84.512 111.747 84.2402 112.318 83.9738C112.841 83.7296 113.363 83.4886 113.786 83.2999C114.223 83.1048 114.521 82.9808 114.619 82.9532C118.24 81.9281 121.604 83.2838 124.709 86.2833C127.819 89.289 130.621 93.9057 133.066 99.2662Z" fill="#F7CC74" stroke="url(#paint4_linear_32_280)" stroke-width="0.73752"/>
<path d="M137.421 97.261C139.962 102.831 140.711 108.527 139.92 113.209C139.127 117.898 136.825 121.447 133.367 123.025C129.91 124.602 125.72 124.015 121.659 121.54C117.605 119.069 113.793 114.77 111.252 109.2C108.711 103.63 107.962 97.9343 108.753 93.2524C109.546 88.5631 111.848 85.0138 115.306 83.4364C118.763 81.8591 122.953 82.4461 127.014 84.9212C131.069 87.3923 134.88 91.6913 137.421 97.261Z" fill="#FFDF9D" stroke="url(#paint5_linear_32_280)" stroke-width="2.21256"/>
<path d="M112.571 113.868C111.422 112.77 110.44 110.381 110.093 109.324L105.731 111.314C106.198 113.046 107.578 115.065 108.21 115.857L112.571 113.868Z" fill="url(#paint6_linear_32_280)"/>
<path d="M113.825 115.727C113.312 115.313 112.979 114.762 112.877 114.539L108.516 116.528C108.638 116.797 109.199 117.433 109.464 117.717L113.825 115.727Z" fill="url(#paint7_linear_32_280)"/>
<path d="M120.992 100.08L123.06 96.3241L122.789 95.7307L119.659 97.1587L118.472 94.5568L126.761 90.7754L128.788 95.2184C129.176 96.0705 129.392 96.8424 129.433 97.5342C129.475 98.2259 129.364 98.8098 129.1 99.2858C128.843 99.7583 128.461 100.11 127.953 100.342C127.351 100.617 126.739 100.632 126.118 100.389C125.502 100.155 124.928 99.6631 124.397 98.9128L122.304 102.956L120.992 100.08ZM124.161 95.1049L124.897 96.7178C125.133 97.2351 125.392 97.5763 125.676 97.7413C125.966 97.9027 126.284 97.905 126.628 97.7481C126.956 97.5983 127.156 97.3539 127.228 97.0147C127.304 96.6857 127.227 96.2676 126.995 95.7604L126.26 94.1475L124.161 95.1049Z" fill="url(#paint8_linear_32_280)"/>
<path d="M131.994 106.655C132.314 107.355 132.462 108.042 132.438 108.714C132.427 109.393 132.239 110.006 131.874 110.552C131.522 111.105 131.002 111.538 130.315 111.852C129.635 112.162 128.967 112.271 128.311 112.178C127.659 112.096 127.069 111.838 126.541 111.405C126.026 110.978 125.608 110.415 125.289 109.715C124.993 109.066 124.851 108.456 124.865 107.886C124.879 107.316 125.033 106.835 125.326 106.444L121.024 108.407L119.837 105.805L129.497 101.398L130.684 104L129.5 104.54C129.988 104.575 130.451 104.774 130.891 105.137C131.33 105.5 131.698 106.006 131.994 106.655ZM129.854 106.621C129.604 106.073 129.254 105.688 128.803 105.465C128.364 105.248 127.898 105.252 127.406 105.477C126.921 105.698 126.613 106.047 126.481 106.524C126.354 107.011 126.416 107.528 126.665 108.076C126.92 108.634 127.264 109.016 127.698 109.222C128.137 109.439 128.607 109.433 129.107 109.205C129.607 108.976 129.919 108.626 130.043 108.152C130.172 107.689 130.109 107.179 129.854 106.621Z" fill="url(#paint9_linear_32_280)"/>
<rect x="35.6077" y="105.116" width="160.779" height="113.578" rx="8.48148" fill="#6E5DE7" stroke="url(#paint10_linear_32_280)" stroke-width="2.21256"/>
<path d="M168.361 147.892C160.622 147.892 154.348 154.166 154.348 161.905C154.348 169.644 160.622 175.918 168.361 175.918H197.493C200.141 175.918 202.287 173.771 202.287 171.124V152.686C202.287 150.038 200.141 147.892 197.493 147.892H168.361Z" fill="#6E5DE7" stroke="url(#paint11_linear_32_280)" stroke-width="2.21256"/>
<circle cx="168.361" cy="161.905" r="7.74396" fill="#CCDAFC"/>
<ellipse cx="81.6168" cy="69.373" rx="23.9916" ry="11.4496" transform="rotate(30.9285 81.6168 69.373)" fill="url(#paint12_radial_32_280)"/>
<path d="M94.1339 49.1024C99.4434 51.6254 103.891 54.7417 106.726 58.1413C109.558 61.5377 110.753 65.1763 109.668 68.7939C109.638 68.8936 109.537 69.132 109.384 69.4683C109.235 69.7944 109.047 70.1881 108.856 70.583C108.647 71.0163 108.431 71.4559 108.26 71.8035C108.122 72.083 108.014 72.303 107.962 72.4126C106.195 76.132 102.351 78.4804 97.4908 79.224C92.633 79.9672 86.8007 79.0964 81.1559 76.4141C75.5112 73.7318 71.1524 69.76 68.6605 65.5243C66.1673 61.2865 65.5603 56.8233 67.3277 53.1039C67.3808 52.992 67.5084 52.7139 67.6768 52.3467C67.8814 51.9003 68.1465 51.3224 68.4117 50.7514C68.6548 50.2278 68.8993 49.7074 69.1014 49.2908C69.3104 48.8603 69.4587 48.5736 69.5156 48.4896C71.6278 45.3742 75.0752 44.2466 79.3815 44.5445C83.6967 44.8431 88.8121 46.5736 94.1339 49.1024Z" fill="#F7CC74" stroke="url(#paint13_linear_32_280)" stroke-width="0.73752"/>
<path d="M96.1761 44.7652C101.705 47.3927 105.945 51.2703 108.352 55.3628C110.764 59.4618 111.286 63.6604 109.655 67.0927C108.024 70.5251 104.439 72.7723 99.7379 73.4916C95.0443 74.2096 89.3606 73.3721 83.8312 70.7446C78.3017 68.1171 74.0626 64.2395 71.6548 60.147C69.2433 56.048 68.7215 51.8494 70.3525 48.4171C71.9835 44.9847 75.5683 42.7374 80.2693 42.0182C84.9629 41.3001 90.6467 42.1377 96.1761 44.7652Z" fill="#FFDF9D" stroke="url(#paint14_linear_32_280)" stroke-width="2.21256"/>
<path d="M87.8445 73.4682C86.259 73.368 83.9697 72.1713 83.0233 71.5855L80.9658 75.9154C82.4379 76.9416 84.7933 77.5981 85.787 77.7981L87.8445 73.4682Z" fill="url(#paint15_linear_32_280)"/>
<path d="M90.0011 74.0847C89.3416 74.098 88.7326 73.8902 88.5106 73.7847L86.4531 78.1146C86.7195 78.2412 87.5578 78.3674 87.9436 78.4146L90.0011 74.0847Z" fill="url(#paint16_linear_32_280)"/>
<path d="M85.4164 57.4962L84.5819 53.2905L83.9927 53.0105L82.5161 56.118L79.933 54.8906L83.843 46.6621L88.2539 48.7581C89.0999 49.1601 89.7614 49.6123 90.2386 50.1149C90.7158 50.6175 91.0064 51.136 91.1104 51.6705C91.2181 52.1972 91.1521 52.7127 90.9124 53.2171C90.6285 53.8145 90.1705 54.2199 89.5384 54.4331C88.9163 54.6511 88.1606 54.6439 87.2711 54.4114L88.2714 58.8529L85.4164 57.4962ZM84.6398 51.6488L86.241 52.4097C86.7546 52.6537 87.1728 52.7478 87.4956 52.692C87.8221 52.6284 88.0665 52.4259 88.2287 52.0845C88.3836 51.7586 88.3793 51.4427 88.2161 51.1369C88.0629 50.8358 87.7345 50.5657 87.231 50.3264L85.6297 49.5655L84.6398 51.6488Z" fill="url(#paint17_linear_32_280)"/>
<path d="M98.0691 55.4479C98.7639 55.7781 99.3187 56.2082 99.7335 56.7382C100.162 57.2652 100.413 57.855 100.485 58.5077C100.571 59.1574 100.452 59.8237 100.128 60.5065C99.8071 61.1815 99.3658 61.6946 98.8038 62.0458C98.252 62.4018 97.6346 62.584 96.9517 62.5924C96.2825 62.5978 95.6005 62.4354 94.9056 62.1052C94.2611 61.7989 93.7607 61.4232 93.4044 60.9781C93.048 60.5329 92.8563 60.0662 92.8292 59.5777L90.7995 63.8491L88.2164 62.6216L92.7735 53.0314L95.3566 54.2589L94.798 55.4344C95.1939 55.1469 95.6769 55.0007 96.247 54.9958C96.8172 54.991 97.4245 55.1416 98.0691 55.4479ZM96.4087 56.7989C95.8648 56.5405 95.3485 56.4711 94.8596 56.5907C94.3845 56.7073 94.0308 57.01 93.7985 57.4989C93.5699 57.9799 93.5586 58.4453 93.7646 58.8951C93.9806 59.3497 94.3606 59.7062 94.9044 59.9646C95.4583 60.2278 95.9677 60.2987 96.4328 60.1773C96.9079 60.0607 97.2635 59.7541 97.4994 59.2575C97.7354 58.7609 97.7486 58.2916 97.5389 57.8496C97.3393 57.4123 96.9625 57.0621 96.4087 56.7989Z" fill="url(#paint18_linear_32_280)"/>
<ellipse cx="126.658" cy="45.5184" rx="20.1864" ry="7.28126" transform="rotate(20.138 126.658 45.5184)" fill="url(#paint19_radial_32_280)"/>
<path d="M142.946 23.0344C145.681 28.2379 147.37 33.3992 147.599 37.8198C147.828 42.2363 146.601 45.864 143.563 48.1077C143.479 48.1695 143.256 48.3 142.931 48.4769C142.616 48.6484 142.23 48.8509 141.84 49.0524C141.413 49.2734 140.976 49.4955 140.631 49.6711C140.353 49.8124 140.135 49.9236 140.027 49.98C136.382 51.8958 131.898 51.4692 127.563 49.1488C123.231 46.8295 119.087 42.6343 116.179 37.1022C113.272 31.5701 112.166 25.7776 112.713 20.8938C113.26 16.0075 115.452 12.0723 119.097 10.1565C119.207 10.0989 119.476 9.95285 119.831 9.76003C120.262 9.52568 120.821 9.22223 121.376 8.92441C121.884 8.65134 122.392 8.38162 122.804 8.16956C123.229 7.95042 123.52 7.80996 123.616 7.77692C127.174 6.5512 130.609 7.7169 133.876 10.5384C137.15 13.3657 140.205 17.8188 142.946 23.0344Z" fill="#F7CC74" stroke="url(#paint20_linear_32_280)" stroke-width="0.73752"/>
<path d="M147.181 20.789C150.029 26.208 151.095 31.8534 150.567 36.5722C150.038 41.2984 147.937 44.9707 144.573 46.7387C141.209 48.5066 136.993 48.1544 132.8 45.91C128.614 43.6691 124.568 39.5896 121.72 34.1705C118.872 28.7515 117.806 23.1061 118.335 18.3873C118.864 13.6611 120.965 9.98878 124.329 8.22083C127.693 6.45288 131.909 6.80507 136.102 9.04949C140.288 11.2904 144.333 15.3699 147.181 20.789Z" fill="#FFDF9D" stroke="url(#paint21_linear_32_280)" stroke-width="2.21256"/>
<path d="M123.298 38.7572C122.089 37.726 120.975 35.3953 120.569 34.3588L116.326 36.5891C116.888 38.2932 118.379 40.2313 119.054 40.9874L123.298 38.7572Z" fill="url(#paint22_linear_32_280)"/>
<path d="M124.654 40.5442C124.118 40.1592 123.755 39.6277 123.641 39.4101L119.397 41.6403C119.535 41.9015 120.13 42.5052 120.41 42.7745L124.654 40.5442Z" fill="url(#paint23_linear_32_280)"/>
<path d="M130.936 24.5213L132.791 20.6556L132.487 20.0782L129.442 21.6789L128.111 19.1473L136.176 14.9089L138.448 19.2318C138.883 20.0609 139.141 20.8196 139.222 21.5079C139.302 22.1962 139.224 22.7854 138.986 23.2755C138.756 23.7615 138.394 24.1344 137.9 24.3942C137.315 24.702 136.705 24.7515 136.071 24.543C135.443 24.3442 134.842 23.8851 134.27 23.1656L132.406 27.3193L130.936 24.5213ZM133.822 19.3768L134.647 20.9461C134.911 21.4495 135.189 21.7756 135.481 21.9245C135.781 22.0695 136.098 22.054 136.432 21.8782C136.752 21.7103 136.938 21.4551 136.99 21.1124C137.048 20.7796 136.948 20.3665 136.688 19.873L135.864 18.3038L133.822 19.3768Z" fill="url(#paint24_linear_32_280)"/>
<path d="M142.288 30.472C142.646 31.153 142.832 31.8299 142.846 32.5028C142.873 33.1815 142.719 33.8037 142.386 34.3694C142.065 34.941 141.57 35.4027 140.901 35.7544C140.239 36.1021 139.579 36.2479 138.918 36.1919C138.263 36.1457 137.66 35.9211 137.108 35.5182C136.57 35.1211 136.122 34.5821 135.764 33.9011C135.432 33.2694 135.257 32.6686 135.239 32.0987C135.22 31.5288 135.347 31.0403 135.618 30.6332L131.432 32.8333L130.102 30.3018L139.501 25.362L140.831 27.8936L139.679 28.4991C140.168 28.5065 140.642 28.6793 141.101 29.0174C141.561 29.3555 141.956 29.8403 142.288 30.472ZM140.149 30.557C139.869 30.024 139.498 29.6588 139.035 29.4612C138.585 29.2695 138.12 29.2995 137.641 29.5513C137.169 29.7991 136.881 30.1647 136.776 30.6482C136.676 31.1415 136.767 31.6546 137.047 32.1876C137.332 32.7304 137.697 33.0927 138.142 33.2746C138.592 33.4662 139.06 33.4342 139.547 33.1784C140.034 32.9226 140.326 32.555 140.423 32.0756C140.526 31.606 140.434 31.0998 140.149 30.557Z" fill="url(#paint25_linear_32_280)"/>
<defs>
<linearGradient id="paint0_linear_32_280" x1="61.2198" y1="95.1011" x2="179.18" y2="208.839" gradientUnits="userSpaceOnUse">
<stop stop-color="#6E5DE7"/>
<stop offset="1" stop-color="#4835CE"/>
</linearGradient>
<linearGradient id="paint1_linear_32_280" x1="61.2198" y1="95.1011" x2="179.18" y2="208.839" gradientUnits="userSpaceOnUse">
<stop stop-color="#6E5DE7"/>
<stop offset="1" stop-color="#4835CE"/>
</linearGradient>
<linearGradient id="paint2_linear_32_280" x1="272.152" y1="165.079" x2="272.152" y2="256.532" gradientUnits="userSpaceOnUse">
<stop stop-color="#2ECC71"/>
<stop offset="1" stop-color="#1AAF59"/>
</linearGradient>
<radialGradient id="paint3_radial_32_280" cx="0" cy="0" r="1" gradientUnits="userSpaceOnUse" gradientTransform="translate(107.664 98.8013) rotate(90) scale(11.4496 20.3281)">
<stop stop-color="#DBB15A" stop-opacity="0.6"/>
<stop offset="1" stop-color="#F8BB3E" stop-opacity="0"/>
</radialGradient>
<linearGradient id="paint4_linear_32_280" x1="109.806" y1="84.7083" x2="128.811" y2="126.364" gradientUnits="userSpaceOnUse">
<stop stop-color="#F7CC74"/>
<stop offset="1" stop-color="#DBB15A"/>
</linearGradient>
<linearGradient id="paint5_linear_32_280" x1="114.847" y1="82.4299" x2="133.827" y2="124.031" gradientUnits="userSpaceOnUse">
<stop stop-color="#F7CC74"/>
<stop offset="1" stop-color="#DBB15A"/>
</linearGradient>
<linearGradient id="paint6_linear_32_280" x1="111.5" y1="111.519" x2="106.711" y2="113.704" gradientUnits="userSpaceOnUse">
<stop stop-color="#F7CC74"/>
<stop offset="1" stop-color="#DBB15A"/>
</linearGradient>
<linearGradient id="paint7_linear_32_280" x1="113.519" y1="115.056" x2="108.822" y2="117.199" gradientUnits="userSpaceOnUse">
<stop stop-color="#F7CC74"/>
<stop offset="1" stop-color="#DBB15A"/>
</linearGradient>
<linearGradient id="paint8_linear_32_280" x1="131.046" y1="100.169" x2="119.64" y2="105.373" gradientUnits="userSpaceOnUse">
<stop stop-color="#F7CC74"/>
<stop offset="1" stop-color="#DBB15A"/>
</linearGradient>
<linearGradient id="paint9_linear_32_280" x1="131.046" y1="100.169" x2="119.64" y2="105.373" gradientUnits="userSpaceOnUse">
<stop stop-color="#F7CC74"/>
<stop offset="1" stop-color="#DBB15A"/>
</linearGradient>
<linearGradient id="paint10_linear_32_280" x1="61.2198" y1="102.642" x2="174.025" y2="216.451" gradientUnits="userSpaceOnUse">
<stop stop-color="#6E5DE7"/>
<stop offset="1" stop-color="#4835CE"/>
</linearGradient>
<linearGradient id="paint11_linear_32_280" x1="222.056" y1="125.832" x2="184.99" y2="182.055" gradientUnits="userSpaceOnUse">
<stop stop-color="#6E5DE7"/>
<stop offset="1" stop-color="#4835CE"/>
</linearGradient>
<radialGradient id="paint12_radial_32_280" cx="0" cy="0" r="1" gradientUnits="userSpaceOnUse" gradientTransform="translate(81.6168 69.373) rotate(90) scale(11.4496 23.9916)">
<stop stop-color="#DBB15A" stop-opacity="0.6"/>
<stop offset="1" stop-color="#F8BB3E" stop-opacity="0"/>
</radialGradient>
<linearGradient id="paint13_linear_32_280" x1="66.9618" y1="52.93" x2="108.317" y2="72.5813" gradientUnits="userSpaceOnUse">
<stop stop-color="#F7CC74"/>
<stop offset="1" stop-color="#DBB15A"/>
</linearGradient>
<linearGradient id="paint14_linear_32_280" x1="69.3533" y1="47.9422" x2="110.654" y2="67.5675" gradientUnits="userSpaceOnUse">
<stop stop-color="#F7CC74"/>
<stop offset="1" stop-color="#DBB15A"/>
</linearGradient>
<linearGradient id="paint15_linear_32_280" x1="85.513" y1="72.3603" x2="83.2537" y2="77.1149" gradientUnits="userSpaceOnUse">
<stop stop-color="#F7CC74"/>
<stop offset="1" stop-color="#DBB15A"/>
</linearGradient>
<linearGradient id="paint16_linear_32_280" x1="89.335" y1="73.7682" x2="87.1192" y2="78.4312" gradientUnits="userSpaceOnUse">
<stop stop-color="#F7CC74"/>
<stop offset="1" stop-color="#DBB15A"/>
</linearGradient>
<linearGradient id="paint17_linear_32_280" x1="93.169" y1="51.0936" x2="87.7878" y2="62.418" gradientUnits="userSpaceOnUse">
<stop stop-color="#F7CC74"/>
<stop offset="1" stop-color="#DBB15A"/>
</linearGradient>
<linearGradient id="paint18_linear_32_280" x1="93.169" y1="51.0936" x2="87.7878" y2="62.418" gradientUnits="userSpaceOnUse">
<stop stop-color="#F7CC74"/>
<stop offset="1" stop-color="#DBB15A"/>
</linearGradient>
<radialGradient id="paint19_radial_32_280" cx="0" cy="0" r="1" gradientUnits="userSpaceOnUse" gradientTransform="translate(126.658 45.5184) rotate(90) scale(7.28126 20.1864)">
<stop stop-color="#DBB15A" stop-opacity="0.6"/>
<stop offset="1" stop-color="#F8BB3E" stop-opacity="0"/>
</radialGradient>
<linearGradient id="paint20_linear_32_280" x1="118.909" y1="9.79796" x2="140.21" y2="50.328" gradientUnits="userSpaceOnUse">
<stop stop-color="#F7CC74"/>
<stop offset="1" stop-color="#DBB15A"/>
</linearGradient>
<linearGradient id="paint21_linear_32_280" x1="123.814" y1="7.24156" x2="145.087" y2="47.7179" gradientUnits="userSpaceOnUse">
<stop stop-color="#F7CC74"/>
<stop offset="1" stop-color="#DBB15A"/>
</linearGradient>
<linearGradient id="paint22_linear_32_280" x1="122.097" y1="36.4722" x2="117.437" y2="38.9212" gradientUnits="userSpaceOnUse">
<stop stop-color="#F7CC74"/>
<stop offset="1" stop-color="#DBB15A"/>
</linearGradient>
<linearGradient id="paint23_linear_32_280" x1="124.31" y1="39.8914" x2="119.74" y2="42.2932" gradientUnits="userSpaceOnUse">
<stop stop-color="#F7CC74"/>
<stop offset="1" stop-color="#DBB15A"/>
</linearGradient>
<linearGradient id="paint24_linear_32_280" x1="140.979" y1="24.0488" x2="129.881" y2="29.8818" gradientUnits="userSpaceOnUse">
<stop stop-color="#F7CC74"/>
<stop offset="1" stop-color="#DBB15A"/>
</linearGradient>
<linearGradient id="paint25_linear_32_280" x1="140.979" y1="24.0488" x2="129.881" y2="29.8818" gradientUnits="userSpaceOnUse">
<stop stop-color="#F7CC74"/>
<stop offset="1" stop-color="#DBB15A"/>
</linearGradient>
</defs>
</svg>
