<svg width="30" height="31" viewBox="0 0 30 31" fill="none" xmlns="http://www.w3.org/2000/svg">
<rect y="0.5" width="30" height="30" rx="8.57143" fill="white"/>
<path d="M15.0134 9.43994C12.8067 9.43994 11.0134 11.2333 11.0134 13.4399V15.3666C11.0134 15.7733 10.8401 16.3933 10.6334 16.7399L9.86673 18.0133C9.39339 18.7999 9.72006 19.6733 10.5867 19.9666C13.4601 20.9266 16.5601 20.9266 19.4334 19.9666C20.2401 19.6999 20.5934 18.7466 20.1534 18.0133L19.3867 16.7399C19.1867 16.3933 19.0134 15.7733 19.0134 15.3666V13.4399C19.0134 11.2399 17.2134 9.43994 15.0134 9.43994Z" stroke="#101010" stroke-width="1.07895" stroke-miterlimit="10" stroke-linecap="round"/>
<path d="M16.2467 9.63321C16.04 9.57321 15.8267 9.52655 15.6067 9.49988C14.9667 9.41988 14.3534 9.46655 13.78 9.63321C13.9734 9.13988 14.4534 8.79321 15.0134 8.79321C15.5734 8.79321 16.0534 9.13988 16.2467 9.63321Z" stroke="#101010" stroke-width="1.07895" stroke-miterlimit="10" stroke-linecap="round" stroke-linejoin="round"/>
<path d="M17.0133 20.2068C17.0133 21.3068 16.1133 22.2068 15.0133 22.2068C14.4666 22.2068 13.96 21.9801 13.6 21.6201C13.24 21.2601 13.0133 20.7535 13.0133 20.2068" stroke="#101010" stroke-width="1.07895" stroke-miterlimit="10"/>
<path d="M15.4456 11.2426C15.4456 12.5953 16.5422 13.692 17.8949 13.692C19.2477 13.692 20.3443 12.5953 20.3443 11.2426C20.3443 9.88984 19.2477 8.79321 17.8949 8.79321C16.5422 8.79321 15.4456 9.88984 15.4456 11.2426Z" fill="#FFE91F"/>
</svg>
